<?xml version="1.0" encoding="iso-8859-1"?>
<!DOCTYPE svg PUBLIC "-//W3C//DTD SVG 20000303 Stylable//EN" "http://www.w3.org/TR/2000/03/WD-SVG-20000303/DTD/svg-20000303-stylable.dtd">
<svg xml:space="preserve" width="4.86425in" height="1.76398in" style="shape-rendering:geometricPrecision; text-rendering:geometricPrecision; image-rendering:optimizeQuality" viewBox="-60437 0 12355 4481">
  <g>
    <g style="fill:#131516">
      <rect x="-60437" y="0" width="434" height="2410"/>
      <rect x="-59787" y="0" width="217" height="2410"/>
      <rect x="-59137" y="0" width="217" height="2410"/>
      <rect x="-58053" y="0" width="217" height="2410"/>
      <rect x="-57186" y="0" width="217" height="2410"/>
      <rect x="-56752" y="0" width="434" height="2410"/>
      <rect x="-55669" y="0" width="434" height="2410"/>
      <rect x="-54802" y="0" width="217" height="2410"/>
      <rect x="-54151" y="0" width="650" height="2410"/>
      <rect x="-53284" y="0" width="217" height="2410"/>
      <rect x="-52851" y="0" width="434" height="2410"/>
      <rect x="-52200" y="0" width="650" height="2410"/>
      <rect x="-50900" y="0" width="867" height="2410"/>
      <rect x="-49816" y="0" width="217" height="2410"/>
      <rect x="-48949" y="0" width="217" height="2410"/>
      <rect x="-48516" y="0" width="434" height="2410"/>
    </g>
    <g style="fill:#1F1A17">
      <path d="M-59904 3672l0 568 461 0c67,0 125,-23 173,-71 47,-47 71,-103 71,-170l0 -85c0,-67 -24,-123 -72,-171 -48,-47 -105,-71 -172,-71l-461 0zm0 -807l0 566 461 0c67,0 125,-23 173,-71 47,-46 71,-103 71,-170l0 -85c0,-65 -24,-122 -72,-169 -48,-48 -105,-71 -172,-71l-461 0zm-241 -241l702 0c132,0 246,48 341,143 96,95 143,207 143,338l0 82c0,72 -15,140 -45,207 -30,67 -71,119 -121,157 53,50 94,106 123,168 29,63 43,128 43,195l0 83c0,132 -47,246 -142,341 -95,95 -209,143 -342,143l-702 0 0 -1857z"/>
      <path d="M-58018 3874c-30,0 -56,11 -80,35 -23,23 -35,51 -35,82l0 134c0,31 12,58 35,81 23,23 50,34 83,34l320 0 259 -145 -3 -107c0,-32 -12,-59 -35,-81 -23,-22 -51,-33 -82,-33l-462 0zm14 -746l427 0c97,0 180,33 249,100 69,68 105,152 109,255l32 861 0 5c0,38 -12,69 -34,94 -23,25 -51,38 -84,38 -33,0 -61,-11 -82,-32 -22,-21 -35,-50 -41,-89l-140 89c-15,9 -32,17 -52,23 -20,6 -38,9 -54,9l-341 0c-99,0 -184,-35 -253,-104 -71,-70 -105,-154 -105,-252l0 -134c0,-98 35,-182 106,-252 71,-71 155,-106 252,-106l459 0c19,0 37,1 55,5 17,3 34,8 49,15l-8 -170c-2,-34 -13,-62 -35,-83 -21,-21 -49,-32 -82,-32l-427 0c-40,0 -71,-10 -94,-32 -23,-21 -35,-51 -35,-88 0,-35 12,-64 36,-87 23,-22 55,-33 93,-33z"/>
      <path d="M-56361 3260l0 127 200 -175c30,-26 65,-47 107,-62 41,-15 82,-22 122,-22l158 0c98,0 182,35 253,105 70,70 105,153 105,250l0 55c0,40 -11,73 -33,97 -22,25 -52,37 -87,37 -35,0 -64,-12 -87,-38 -22,-25 -33,-57 -33,-96l0 -55c0,-30 -12,-58 -35,-82 -24,-23 -51,-35 -83,-35l-158 0c-13,0 -28,3 -45,10 -17,7 -31,15 -40,24l-344 304 0 643c0,40 -11,72 -34,97 -22,24 -51,37 -87,37 -35,0 -64,-13 -87,-38 -22,-25 -33,-57 -33,-96l0 -1087c0,-41 11,-73 33,-96 22,-24 51,-36 87,-36 36,0 65,12 87,37 23,24 34,56 34,95z"/>
      <path d="M-54258 3128l480 0c39,0 71,11 96,34 26,23 38,52 38,86 0,36 -12,65 -36,86 -23,21 -56,32 -98,32l-480 0c-14,0 -27,2 -41,9 -13,6 -27,15 -42,28l-214 187c-10,8 -18,20 -25,34 -6,15 -10,30 -10,45l0 267c0,16 4,32 10,47 7,16 15,28 24,36l217 188c16,13 31,22 43,26 12,5 25,7 38,7l480 0c40,0 72,11 97,34 25,22 37,51 37,86 0,36 -12,65 -38,87 -25,23 -57,34 -96,34l-480 0c-40,0 -81,-8 -124,-23 -42,-16 -78,-35 -107,-60l-215 -190c-41,-37 -73,-78 -94,-125 -22,-46 -32,-95 -32,-147l0 -264c0,-50 10,-99 32,-146 21,-47 53,-89 94,-126l215 -188c29,-26 65,-46 107,-61 43,-16 84,-23 124,-23z"/>
      <path d="M-52597 3366c-13,0 -25,2 -37,7 -13,5 -26,13 -39,22l-102 85c-13,11 -24,24 -31,40 -8,17 -12,33 -12,50l0 470c0,17 4,33 12,49 7,16 18,29 31,39l104 87c11,8 23,15 35,19 13,4 26,6 39,6l263 0c13,0 26,-2 39,-7 13,-4 25,-11 36,-20l102 -85c13,-9 23,-22 31,-39 8,-17 13,-33 13,-49l0 -470c0,-17 -4,-33 -12,-50 -8,-16 -18,-29 -30,-38l-105 -87c-12,-9 -25,-17 -37,-22 -13,-5 -25,-7 -37,-7l-263 0zm-3 -238l266 0c40,0 80,7 119,21 40,15 76,36 110,63l103 82c40,33 71,74 95,123 23,50 34,100 34,153l0 470c0,51 -11,101 -34,150 -23,48 -54,89 -95,121l-103 87c-34,26 -70,47 -110,61 -39,15 -79,22 -119,22l-266 0c-40,0 -79,-7 -117,-21 -39,-14 -75,-35 -110,-62l-103 -87c-40,-32 -72,-73 -95,-121 -22,-49 -34,-99 -34,-150l0 -470c0,-53 12,-103 34,-153 23,-49 55,-90 95,-123l103 -82c35,-28 71,-49 110,-63 38,-14 77,-21 117,-21z"/>
      <path d="M-50849 3368c-26,0 -52,11 -79,32 -2,1 -3,2 -4,3l-80 63c-10,9 -18,20 -25,35 -6,16 -10,30 -10,45l0 514c0,15 4,32 10,47 7,16 15,28 25,35l80 63c1,1 2,2 3,3 28,22 54,32 80,32l185 0c15,0 28,-3 42,-9 13,-5 28,-14 42,-26l203 -165c9,-8 17,-19 23,-35 7,-16 9,-32 9,-49l0 -306c0,-17 -2,-33 -9,-48 -6,-16 -14,-27 -23,-35l-203 -164c-13,-12 -27,-21 -40,-26 -13,-6 -27,-9 -44,-9l-185 0zm748 -610l0 1589c0,39 -12,71 -35,96 -23,25 -53,38 -88,38 -37,0 -66,-12 -88,-36 -22,-25 -33,-57 -33,-98l0 -27 -89 78c-30,26 -65,47 -106,61 -40,15 -82,22 -124,22l-185 0c-42,0 -81,-7 -120,-21 -39,-14 -75,-35 -110,-62l-82 -63c-40,-30 -71,-71 -94,-121 -24,-50 -35,-101 -35,-154l0 -522c0,-47 12,-96 37,-146 24,-50 55,-89 92,-117l82 -63c36,-28 72,-49 110,-63 38,-14 77,-21 120,-21l185 0c42,0 84,7 124,22 41,15 76,36 106,62l89 77 0 -531c0,-39 11,-71 34,-96 22,-26 51,-38 87,-38 35,0 65,12 88,37 23,24 35,57 35,97z"/>
      <path d="M-49054 3366c-13,0 -25,2 -37,7 -13,5 -26,13 -39,22l-102 85c-13,11 -24,24 -31,40 -8,17 -12,33 -12,50l0 162 705 0 0 -162c0,-17 -4,-33 -12,-50 -8,-16 -18,-29 -30,-38l-105 -87c-12,-9 -25,-17 -37,-22 -13,-5 -25,-7 -37,-7l-263 0zm-3 -238l266 0c40,0 80,7 119,21 40,15 76,36 110,63l103 82c40,33 71,74 95,123 23,50 34,100 34,153l0 287c0,34 -12,63 -37,86 -26,22 -58,34 -97,34l-811 0 0 63c0,17 4,33 12,49 7,16 18,29 31,39l102 87c11,8 23,15 34,19 12,4 26,6 42,6l590 0c40,0 73,11 97,34 25,22 37,51 37,86 0,36 -12,65 -37,87 -26,23 -58,34 -97,34l-593 0c-40,0 -79,-7 -117,-21 -39,-14 -75,-35 -110,-62l-103 -87c-40,-32 -72,-73 -95,-122 -22,-48 -34,-98 -34,-149l0 -470c0,-53 12,-103 34,-153 23,-49 55,-90 95,-123l103 -82c35,-28 71,-49 110,-63 38,-14 77,-21 117,-21z"/>
    </g>
  </g>
</svg>
